<svg width="26" height="26" viewBox="0 0 26 26" fill="none" xmlns="http://www.w3.org/2000/svg">
<path fill-rule="evenodd" clip-rule="evenodd" d="M20.9151 22.9857H4.3448C3.45294 22.9857 2.79435 22.1266 3.13073 21.3366C4.69149 17.6835 8.35817 15.5907 12.6293 15.5907C16.9017 15.5907 20.5684 17.6835 22.1292 21.3366C22.4655 22.1266 21.8069 22.9857 20.9151 22.9857ZM7.47404 8.19575C7.47404 5.47686 9.78746 3.26576 12.6293 3.26576C15.4724 3.26576 17.7846 5.47686 17.7846 8.19575C17.7846 10.9146 15.4724 13.1257 12.6293 13.1257C9.78746 13.1257 7.47404 10.9146 7.47404 8.19575ZM25.1991 22.5371C24.2621 18.3971 21.3314 15.3417 17.474 13.9552C19.518 12.3813 20.7102 9.83613 20.272 7.04946C19.7642 3.81662 16.952 1.22966 13.5573 0.852518C8.87112 0.331171 4.89641 3.81915 4.89641 8.19575C4.89641 10.5252 6.02541 12.6007 7.78594 13.9552C3.92722 15.3417 0.997746 18.3971 0.0594891 22.5371C-0.280758 24.0419 0.987437 25.4507 2.59717 25.4507H22.6614C24.2725 25.4507 25.5406 24.0419 25.1991 22.5371Z" fill="white"/>
</svg>
