<svg width="35" height="34" viewBox="0 0 35 34" fill="none" xmlns="http://www.w3.org/2000/svg">
<path d="M23.2745 16.875L33.8385 6.5625C35.3751 5.0625 35.3751 2.8125 33.8385 1.3125C33.2623 0.5625 32.3019 0 31.3416 0C30.3812 0 29.4208 0.375 28.6525 1.125L17.8964 11.625L7.33242 1.3125C5.79584 -0.1875 3.29889 -0.1875 1.95438 1.3125C1.18608 1.875 0.609863 2.8125 0.609863 3.9375C0.609863 5.0625 0.994009 5.8125 1.7623 6.5625L12.3263 16.875L1.7623 27.1875C1.18608 27.9375 0.609863 28.875 0.609863 30C0.609863 30.9375 0.994009 31.875 1.7623 32.625C2.53059 33.375 3.49096 33.75 4.45133 33.75C5.41169 33.75 6.37206 33.375 7.14035 32.625L17.7044 22.3125L28.2684 32.625C29.805 34.125 32.3019 34.125 33.6464 32.625C35.183 31.125 35.183 28.6875 33.6464 27.375L23.2745 16.875Z" fill="white"/>
</svg>
