<svg width="25" height="28" viewBox="0 0 25 28" fill="none" xmlns="http://www.w3.org/2000/svg">
<path d="M5.61477 11.0069C6.2761 10.9674 7.09139 10.9674 8.13989 10.9674H17.1181C18.1666 10.9674 18.9819 10.9674 19.6432 11.0069M5.61477 11.0069C4.78945 11.056 4.20392 11.1667 3.70415 11.4152C2.91226 11.8091 2.26844 12.4375 1.86495 13.2106C1.40625 14.0895 1.40625 15.2398 1.40625 17.5407V19.458C1.40625 21.7589 1.40625 22.9092 1.86495 23.7881C2.26844 24.5612 2.91226 25.1896 3.70415 25.5835C4.60439 26.0313 5.78289 26.0313 8.13989 26.0313H17.1181C19.4751 26.0313 20.6535 26.0313 21.5539 25.5835C22.3458 25.1896 22.9895 24.5612 23.393 23.7881C23.8517 22.9092 23.8517 21.7589 23.8517 19.458V17.5407C23.8517 15.2398 23.8517 14.0895 23.393 13.2106C22.9895 12.4375 22.3458 11.8091 21.5539 11.4152C21.054 11.1667 20.4685 11.056 19.6432 11.0069M5.61477 11.0069V8.22855C5.61477 4.44695 8.75515 1.38135 12.629 1.38135C16.5028 1.38135 19.6432 4.44695 19.6432 8.22855V11.0069" stroke="white" stroke-width="2" stroke-linecap="round" stroke-linejoin="round"/>
</svg>
